<?xml version="1.0" standalone="no"?><!DOCTYPE svg PUBLIC "-//W3C//DTD SVG 1.1//EN" "http://www.w3.org/Graphics/SVG/1.1/DTD/svg11.dtd"><svg class="icon" width="200px" height="200.00px" viewBox="0 0 1024 1024" version="1.1" xmlns="http://www.w3.org/2000/svg"><path d="M791.423479 206.317972l0-38.495756c0-12.706393-10.29139-23.016203-22.997784-23.016203L262.265704 144.806014c-12.706393 0-22.997784 10.308787-22.997784 23.016203l0 38.335097-4.492314 0c-58.845223 0-106.71958 47.874357-106.71958 106.701161l0 461.454814c0 58.8442 47.874357 106.718557 106.71958 106.718557l553.48074 0c58.82578 0 106.717534-47.874357 106.717534-106.718557L894.97388 312.858474C894.974903 255.105119 848.801281 208.018707 791.423479 206.317972zM848.944544 312.858474l0 138.719388-57.521065 0L791.423479 252.492618C823.387471 254.19233 848.944544 280.483112 848.944544 312.858474zM285.263487 190.818977l460.165448 0L745.428935 451.577862 285.263487 451.577862 285.263487 190.818977zM234.775606 252.170277l4.492314 0L239.26792 451.577862l-61.3513 0c-1.324158 0-2.577708 0.161682-3.830235 0.375553L174.086385 312.858474C174.087409 279.408641 201.3094 252.170277 234.775606 252.170277zM788.25737 835.018881 234.775606 835.018881c-33.467229 0-60.688197-27.239388-60.688197-60.705594L174.087409 497.196853c1.252527 0.214894 2.506077 0.375553 3.830235 0.375553l84.34806 0 506.161015 0 80.518848 0 0 276.740882C848.944544 807.779494 821.722552 835.018881 788.25737 835.018881zM565.636083 307.22108c7.873318 0 14.282285-6.389524 14.282285-14.263865 0-7.892761-6.408967-14.263865-14.282285-14.263865l-30.121018 0 28.600385-28.599362c5.564739-5.584182 5.564739-14.603603 0-20.169365-5.565762-5.584182-14.604626-5.584182-20.170388 0l-35.365462 35.347043-35.364439-35.347043c-5.565762-5.584182-14.603603-5.584182-20.151969 0-5.584182 5.565762-5.584182 14.586207 0 20.169365l28.580942 28.599362-30.121018 0c-7.874341 0-14.263865 6.371104-14.263865 14.263865 0 7.874341 6.389524 14.263865 14.263865 14.263865l42.791595 0 0 28.509311-42.791595 0c-7.874341 0-14.263865 6.389524-14.263865 14.282285 0 7.874341 6.389524 14.263865 14.263865 14.263865l42.791595 0 0 38.031175c0 7.891737 6.390547 14.262842 14.263865 14.262842 7.874341 0 14.263865-6.371104 14.263865-14.262842l0-38.031175L565.636083 364.276541c7.873318 0 14.282285-6.389524 14.282285-14.263865 0-7.891737-6.408967-14.282285-14.282285-14.282285l-42.790572 0 0-28.509311L565.636083 307.22108z" fill="#ffffff" /></svg>