<?xml version="1.0" standalone="no"?><!DOCTYPE svg PUBLIC "-//W3C//DTD SVG 1.1//EN" "http://www.w3.org/Graphics/SVG/1.1/DTD/svg11.dtd"><svg class="icon" width="200px" height="200.00px" viewBox="0 0 1024 1024" version="1.1" xmlns="http://www.w3.org/2000/svg"><path d="M551.76926 159.239747l0-16.324804c0-24.566512-20.09978-44.666292-44.665269-44.666292l-5.573949 0c-24.584931 0-44.665269 20.100804-44.665269 44.666292l0 18.10331c-186.217169 26.523073-329.86173 186.947809-329.86173 380.358821 0 211.888851 172.382069 384.27092 384.291386 384.27092 28.340465 0 56.644091-3.101641 84.075861-9.230222 13.696953-3.062755 22.332634-16.621563 19.269879-30.317493-3.062755-13.716396-16.700357-22.293749-30.336936-19.269879-23.816428 5.296633-48.381917 8.004301-73.008804 8.004301-183.884031 0-333.497537-149.594063-333.497537-333.457628s149.613506-333.478094 333.497537-333.478094c183.864588 0 333.458651 149.614529 333.458651 333.478094 0 24.527626-2.688225 48.994877-7.946996 72.711022-3.042289 13.696953 5.573949 27.255761 19.291368 30.29805 13.676487 3.102664 27.254737-5.572926 30.317493-19.268856 6.068206-27.314089 9.150404-55.496965 9.150404-83.740216C895.565351 343.163687 744.706481 179.538049 551.76926 159.239747zM511.985162 322.885851c-14.031575 0-25.39539 11.383258-25.39539 25.39539l0 191.551664c0 14.033621 11.363815 25.416879 25.39539 25.416879l179.25971 0c14.052041 0 25.396413-11.383258 25.396413-25.416879 0-14.031575-11.344373-25.39539-25.396413-25.39539L537.402041 514.437515 537.402041 348.282265C537.402041 334.26911 526.038226 322.885851 511.985162 322.885851zM751.26792 650.987494c-73.936943 0-133.88222 59.924811-133.88222 133.86073 0 73.9175 59.945277 133.841288 133.88222 133.841288 73.9175 0 133.841288-59.923788 133.841288-133.841288C885.109208 710.912305 825.186444 650.987494 751.26792 650.987494zM796.01403 801.944602c7.925507 0 14.347776 6.423293 14.347776 14.329357 0 7.925507-6.42227 14.329357-14.347776 14.329357l-29.764907 0 0 27.392884c0 7.925507-6.443759 14.3488-14.3488 14.3488-7.924483 0-14.347776-6.423293-14.347776-14.3488l0-27.392884-32.333406 0c-7.925507 0-14.3488-6.40385-14.3488-14.329357 0-7.906064 6.423293-14.329357 14.3488-14.329357L737.551524 801.944602l0-15.632025-31.068599 0c-7.907087 0-14.328333-6.423293-14.328333-14.329357 0-7.924483 6.421246-14.347776 14.328333-14.347776L726.602148 757.635443l-21.957081-21.978571c-5.594415-5.593392-5.594415-14.665001 0-20.258393 5.593392-5.611811 14.685467-5.611811 20.258393 0l27.155477 27.137057 27.155477-27.137057c5.611811-5.611811 14.685467-5.611811 20.277836 0 5.612834 5.593392 5.612834 14.665001 0 20.258393l-21.977547 21.978571 19.783579 0c7.924483 0 14.329357 6.423293 14.329357 14.347776 0 7.906064-6.404873 14.329357-14.329357 14.329357l-31.05018 0 0 15.632025L796.01403 801.944602z" fill="#ffffff" /></svg>