<?xml version="1.0" standalone="no"?><!DOCTYPE svg PUBLIC "-//W3C//DTD SVG 1.1//EN" "http://www.w3.org/Graphics/SVG/1.1/DTD/svg11.dtd"><svg class="icon" width="200px" height="200.00px" viewBox="0 0 1024 1024" version="1.1" xmlns="http://www.w3.org/2000/svg"><path d="M421.43744 297.69728h191.13984c59.1872 0 104.30464-125.93152 104.30464-125.93152 0-37.76512-3.87072-66.29376-69.55008-68.28032-65.65888-2.048-81.38752 45.056-128.6144 45.056-48.3328 0-72.4992-37.0688-132.05504-45.056-59.4944-8.06912-69.48864 30.5152-69.48864 68.28032 0 0 45.056 125.93152 104.2432 125.93152z m201.60512 38.93248h-201.60512C198.20544 336.62976 143.36 767.2832 143.36 767.2832 143.36 823.86944 190.0544 880.64 247.6032 880.64h549.19168C854.38464 880.64 901.12 823.86944 901.12 767.2832c0 0-54.8864-430.65344-278.07744-430.65344z m22.87616 330.9568c13.45536 0 24.35072 10.71104 24.35072 23.92064a24.1664 24.1664 0 0 1-24.3712 23.9616h-98.83648V778.24a24.1664 24.1664 0 0 1-24.35072 23.9616 24.1664 24.1664 0 0 1-24.35072-23.9616v-62.73024h-99.49184c-13.39392 0-24.3712-10.77248-24.3712-23.9616a24.1664 24.1664 0 0 1 24.3712-23.92064h99.49184v-30.35136h-99.49184a24.1664 24.1664 0 0 1-24.3712-23.92064c0-13.2096 10.97728-23.9616 24.3712-23.9616h67.2768l-68.89472-120.13568a23.7568 23.7568 0 0 1 8.92928-32.68608 24.63744 24.63744 0 0 1 33.30048 8.704l82.88256 144.11776h4.21888l82.88256-144.11776a24.576 24.576 0 0 1 33.23904-8.704c11.6736 6.59456 15.64672 21.21728 8.92928 32.68608l-68.83328 120.13568h63.11936c13.45536 0 24.35072 10.752 24.35072 23.9616 0 13.23008-10.89536 23.92064-24.3712 23.92064h-98.83648v30.35136h98.85696z" fill="#ffffff" /></svg>