<?xml version="1.0" standalone="no"?><!DOCTYPE svg PUBLIC "-//W3C//DTD SVG 1.1//EN" "http://www.w3.org/Graphics/SVG/1.1/DTD/svg11.dtd"><svg class="icon" width="200px" height="200.00px" viewBox="0 0 1024 1024" version="1.1" xmlns="http://www.w3.org/2000/svg"><path d="M512 0l442.181818 256v512L512 1024 69.818182 768V256L512 0z m0 28.276364L93.090909 270.149818v483.700364l418.909091 241.873454 418.909091-241.873454V270.149818L512 28.276364zM256 698.181818h512v23.272727H256v-23.272727z m0-162.909091h93.090909v139.636364H256v-139.636364z m418.909091-209.454545h93.090909v349.090909h-93.090909V325.818182z m-279.272727 93.090909h93.090909v256h-93.090909V418.909091z m139.636363 69.818182h93.090909v186.181818h-93.090909v-186.181818zM279.272727 558.545455v93.090909h46.545455v-93.090909H279.272727z m418.909091-209.454546v302.545455h46.545455V349.090909h-46.545455z m-279.272727 93.090909v209.454546h46.545454v-209.454546h-46.545454z m139.636364 69.818182v139.636364h46.545454v-139.636364h-46.545454z" fill="#ffffff" /></svg>