<?xml version="1.0" standalone="no"?><!DOCTYPE svg PUBLIC "-//W3C//DTD SVG 1.1//EN" "http://www.w3.org/Graphics/SVG/1.1/DTD/svg11.dtd"><svg class="icon" width="200px" height="200.00px" viewBox="0 0 1024 1024" version="1.1" xmlns="http://www.w3.org/2000/svg"><path d="M394.5 1024c-53.762 0-97.5-43.738-97.5-97.5s43.738-97.5 97.5-97.5 97.5 43.738 97.5 97.5S448.262 1024 394.5 1024zM394.5 893c-18.472 0-33.5 15.028-33.5 33.5s15.028 33.5 33.5 33.5 33.5-15.028 33.5-33.5S412.972 893 394.5 893zM775.5 1024c-53.762 0-97.5-43.738-97.5-97.5s43.738-97.5 97.5-97.5 97.5 43.738 97.5 97.5S829.262 1024 775.5 1024zM775.5 893c-18.472 0-33.5 15.028-33.5 33.5s15.028 33.5 33.5 33.5 33.5-15.028 33.5-33.5S793.972 893 775.5 893zM837.138 773.917c-1.527 0-2.89-0.059-4.068-0.145L401.904 773.772c-40.291 0-75.033-15.057-103.262-44.753-23.21-24.416-41.882-58.526-57.082-104.278-26.507-79.791-38.625-182.417-51.453-291.069-2.264-19.172-4.604-38.998-7.001-58.409-8.959-72.566-32.673-124.128-68.579-149.111-35.95-25.013-73.792-17.002-74.165-16.916-17.2 4.067-34.438-6.579-38.504-23.778C-2.208 68.26 8.438 51.021 25.637 46.955c2.655-0.627 65.711-14.897 125.444 26.663 39.553 27.52 67.621 71.847 83.81 132.179 0.234-0.005 0.461-0.01 0.7-0.006l686.876 1.434c37.604 0 60.011 15.34 72.175 28.208 27.451 29.042 26.08 68.284 25.833 72.663l-0.076 1.353-0.19 1.341c-0.19 1.346-19.52 136.427-56.264 292.828-16.892 71.897-41.622 121.935-73.504 148.723C868.513 770.763 848.359 773.917 837.138 773.917zM246.919 269.814c2.313 18.807 4.566 37.882 6.747 56.354 12.435 105.319 24.181 204.797 48.631 278.396 12 36.119 26.376 63.156 42.731 80.362 16.115 16.951 34.188 24.847 56.876 24.847l435.573 0 0.354 0.065c2.134-0.473 9.003-2.747 18.39-13.347 12.518-14.137 30.56-44.264 45.42-107.513 33.716-143.514 52.447-268.352 54.921-285.247-0.093-5.349-1.705-17.408-8.621-24.535-5.135-5.291-13.728-7.973-25.541-7.973L246.919 269.814z" fill="#ffffff" /></svg>