<?xml version="1.0" standalone="no"?><!DOCTYPE svg PUBLIC "-//W3C//DTD SVG 1.1//EN" "http://www.w3.org/Graphics/SVG/1.1/DTD/svg11.dtd"><svg class="icon" width="200px" height="200.00px" viewBox="0 0 1024 1024" version="1.1" xmlns="http://www.w3.org/2000/svg"><path d="M942.16192 357.82656v157.65504l35.92192 43.6224-69.44768 62.8736-63.87712-62.8736 38.31808-44.4416V383.7952C677.888 471.04 621.99808 498.70848 576.512 519.68c-45.50656 20.97152-78.2336 20.97152-123.74016 3.35872-44.72832-17.6128-249.91744-98.95936-356.88448-151.79776-71.0656-35.2256-75.85792-57.87648 1.57696-88.064C198.06208 243.77344 354.52928 180.03968 442.368 145.65376c51.89632-21.8112 79.83104-33.54624 127.73376-9.216 85.44256 36.88448 270.66368 112.35328 368.06656 154.29632 84.64384 38.56384 27.9552 51.15904 3.9936 67.09248zM586.87488 585.09312c49.50016-20.97152 116.57216-56.19712 190.01344-88.8832v259.95264S682.68032 860.16 515.80928 860.16c-178.83136 0-275.456-103.99744-275.456-103.99744V512.96256c56.70912 23.49056 119.76704 44.4416 196.4032 71.2704 47.12448 18.47296 107.008 24.33024 150.1184 0.86016z" fill="#ffffff" /></svg>