<?xml version="1.0" standalone="no"?><!DOCTYPE svg PUBLIC "-//W3C//DTD SVG 1.1//EN" "http://www.w3.org/Graphics/SVG/1.1/DTD/svg11.dtd"><svg class="icon" width="200px" height="200.00px" viewBox="0 0 1024 1024" version="1.1" xmlns="http://www.w3.org/2000/svg"><path d="M836.382437 234.480382 585.326541 234.480382c-11.032264-50.039673-55.656601-87.63492-108.965737-87.63492L282.926256 146.845463c-53.492308 0-98.280374 37.861306-109.069091 88.186482-62.197574 5.578042-111.112634 57.925271-111.112634 121.532961l0 397.617903c0 67.303872 54.759161 122.084523 122.084523 122.084523L836.382437 876.267331c67.325361 0 122.085546-54.779627 122.085546-122.084523L958.467983 356.565928C958.467983 289.261033 903.707798 234.480382 836.382437 234.480382zM282.926256 199.37791l193.434547 0c24.029276 0 44.665269 14.467503 53.881165 35.103496L229.065558 234.481406C238.28043 213.84439 258.89698 199.37791 282.926256 199.37791zM905.935536 754.183831c0 38.370913-31.200606 69.552076-69.553099 69.552076L184.829054 823.735907c-38.352493 0-69.573565-31.181163-69.573565-69.552076L115.255489 356.565928c0-38.35147 31.221072-69.552076 69.573565-69.552076L836.382437 287.013853c38.352493 0 69.553099 31.200606 69.553099 69.552076L905.935536 754.183831zM440.338379 324.68994c-127.213333 0-230.683916 103.491049-230.683916 230.683916 0 127.193891 103.470583 230.683916 230.683916 230.683916 127.192867 0 230.683916-103.490026 230.683916-230.683916C671.022295 428.180989 567.531246 324.68994 440.338379 324.68994zM440.338379 733.50486c-98.239442 0-178.151469-79.890538-178.151469-178.131003 0-98.239442 79.911004-178.150446 178.151469-178.150446 98.218976 0 178.131003 79.911004 178.131003 178.150446C618.469382 653.614321 538.557354 733.50486 440.338379 733.50486zM806.939871 394.896932m-38.331004 0a37.458 37.458 0 1 0 76.662007 0 37.458 37.458 0 1 0-76.662007 0Z" fill="#ffffff" /></svg>