<?xml version="1.0" standalone="no"?><!DOCTYPE svg PUBLIC "-//W3C//DTD SVG 1.1//EN" "http://www.w3.org/Graphics/SVG/1.1/DTD/svg11.dtd"><svg class="icon" width="200px" height="200.00px" viewBox="0 0 1024 1024" version="1.1" xmlns="http://www.w3.org/2000/svg"><path d="M237.714286 347.428571h621.714285c40.228571 0 73.142857 32.914286 73.142858 73.142858s-32.914286 73.142857-73.142858 73.142857h-621.714285c-40.228571 0-73.142857-32.914286-73.142857-73.142857s32.914286-73.142857 73.142857-73.142858zM310.857143 585.142857h548.571428v256c0 40.228571-32.914286 73.142857-73.142857 73.142857h-438.857143c-40.228571 0-73.142857-32.914286-73.142857-73.142857v-219.428571c0-21.942857 14.628571-36.571429 36.571429-36.571429z" fill="#ffffff" /><path d="M885.028571 512H138.971429C80.457143 512 36.571429 468.114286 36.571429 409.6V321.828571C36.571429 263.314286 80.457143 219.428571 138.971429 219.428571h749.714285C943.542857 219.428571 987.428571 263.314286 987.428571 321.828571v91.428572c0 54.857143-43.885714 98.742857-102.4 98.742857zM138.971429 274.285714c-25.6 0-43.885714 21.942857-43.885715 43.885715v91.428571c0 25.6 21.942857 43.885714 43.885715 43.885714h749.714285c25.6 0 43.885714-21.942857 43.885715-43.885714V321.828571c0-25.6-21.942857-43.885714-43.885715-43.885714H138.971429z" fill="#ffffff" /><path d="M731.428571 950.857143H292.571429c-80.457143 0-146.285714-65.828571-146.285715-146.285714v-347.428572h731.428572V804.571429c0 80.457143-65.828571 146.285714-146.285715 146.285714zM201.142857 512v292.571429c0 51.2 40.228571 91.428571 91.428572 91.428571h438.857142c51.2 0 91.428571-40.228571 91.428572-91.428571v-292.571429h-621.714286zM512 252.342857c-14.628571 0-29.257143-10.971429-32.914286-25.6-10.971429-51.2-54.857143-84.114286-106.057143-84.114286s-95.085714 32.914286-106.057142 84.114286c-3.657143 18.285714-21.942857 29.257143-40.228572 25.6-18.285714-3.657143-29.257143-21.942857-25.6-40.228571C219.428571 131.657143 292.571429 76.8 373.028571 76.8s153.6 54.857143 171.885715 135.314286c3.657143 18.285714-7.314286 36.571429-25.6 40.228571H512z" fill="#ffffff" /><path d="M789.942857 252.342857c-14.628571 0-29.257143-10.971429-32.914286-25.6-10.971429-51.2-54.857143-84.114286-106.057142-84.114286s-95.085714 32.914286-106.057143 84.114286c-3.657143 18.285714-21.942857 29.257143-40.228572 25.6-18.285714-3.657143-29.257143-21.942857-25.6-40.228571 18.285714-80.457143 87.771429-135.314286 171.885715-135.314286 80.457143 0 153.6 54.857143 171.885714 135.314286 3.657143 18.285714-7.314286 36.571429-25.6 40.228571h-7.314286z" fill="#ffffff" /><path d="M431.542857 676.571429h160.914286c14.628571 0 29.257143 14.628571 29.257143 29.257142s-14.628571 29.257143-29.257143 29.257143h-160.914286c-14.628571 0-29.257143-14.628571-29.257143-29.257143s14.628571-29.257143 29.257143-29.257142z" fill="#ffffff" /></svg>