<?xml version="1.0" standalone="no"?><!DOCTYPE svg PUBLIC "-//W3C//DTD SVG 1.1//EN" "http://www.w3.org/Graphics/SVG/1.1/DTD/svg11.dtd"><svg class="icon" width="200px" height="200.00px" viewBox="0 0 1024 1024" version="1.1" xmlns="http://www.w3.org/2000/svg"><path d="M780.756535 251.619738c-51.481512-40.362266-112.115474-68.075445-176.207188-81.951477-7.589862-44.355207-46.233997-78.274738-92.743264-78.274738-46.50108 0-85.144192 33.918507-92.744287 78.274738-64.101947 13.877055-124.725676 41.589211-176.207188 81.951477-71.78186 56.294121-114.634854 129.509632-114.634854 195.844433 0 43.644009 16.73208 75.902714 45.412282 99.780541l44.831045 360.89349c1.581008 12.730952 12.393261 22.257933 25.212218 22.257933L779.936867 930.396135c12.81691 0 23.630187-9.526981 25.211195-22.257933l44.831045-360.89349c28.680203-23.877827 45.414329-56.136531 45.414329-99.780541C895.392412 381.128347 852.537372 307.913858 780.756535 251.619738zM476.24517 160.891364c7.847735-11.266601 20.833491-18.658965 35.55989-18.658965 14.7264 0 27.712155 7.392364 35.558867 18.658965 4.892427 6.997368 7.807826 15.496949 7.807826 24.708751 0 9.883091-3.459798 18.935258-9.071609 26.249851-7.92653 10.317996-20.279882 17.117866-34.295084 17.117866s-26.368554-6.79987-34.295084-17.117866c-5.613858-7.313569-9.082866-16.366759-9.082866-26.249851C468.428134 176.388313 471.353766 167.888731 476.24517 160.891364zM266.128685 879.597169l-37.002752-297.879318c3.479241 1.186012 7.126304 1.343601 10.752902 0.949628 2.115174-0.198521 4.229325-0.397043 6.246261-1.107217l21.89159-8.064676 26.76355 306.101583L266.128685 879.597169zM336.418564 879.597169l-26.852578-307.051211 29.965475 8.974395c5.110391 1.542122 10.54517 1.423419 15.576767-0.276293l24.420179-8.42181 13.421684 306.774919L336.418564 879.597169zM482.2837 879.597169l-47.815005 0-13.481036-308.158429 15.793708 10.081613c5.208629 1.463328 10.743692 1.224898 15.823384-0.672312l29.67895-3.557012L482.2837 879.597169zM589.141426 879.597169l-61.551868 0L527.589558 571.359946l28.028357 9.685593c5.040806 1.739621 10.507308 1.858324 15.615653 0.317225l31.369452-9.4093L589.141426 879.597169zM630.660029 879.597169l13.510712-308.790832 39.563064 10.753925c5.29561 1.423419 10.879792 1.107217 15.97995-0.86981l14.112416-5.574972-26.63359 304.481689L630.660029 879.597169zM757.480412 879.597169l-28.650527 0 26.713408-305.430294 15.969717 6.443759c5.327332 2.134617 11.159154 2.134617 16.653285 0.5137 0.593518-0.156566 1.236154-0.078795 1.829671-0.317225l4.832052-1.816369L757.480412 879.597169zM779.886725 529.179264l-34.167171-13.757329c-6.02932-2.451842-12.759605-2.451842-18.807345-0.078795l-37.981033 14.94334-58.261938-15.813151c-4.585435-1.225921-9.428743-1.186012-13.975293 0.196475l-52.221362 15.656585-44.36544-15.33936c-5.603625-1.937119-11.721973-1.856277-17.275455 0.237407l-40.125883 15.140839-56.265468-15.773242c-4.971222-1.384533-10.248412-1.224898-15.111163 0.434905l-44.998867 15.496949-51.619658-15.536858c-5.26798-1.579985-10.911514-1.423419-16.080234 0.474814l-36.07359 13.242606c-43.249013-18.540262-63.519686-45.225017-63.519686-81.239256 0-88.87005 106.461707-193.868429 245.449201-226.680742 13.974269 34.551934 47.824215 59.023278 87.318718 59.023278 39.502689 0 73.342402-24.471344 87.317695-59.062164 138.977261 32.851199 245.448178 137.849578 245.448178 226.719628C844.571956 483.795635 823.907311 510.637979 779.886725 529.179264z" fill="#ffffff" /><path d="M715.081767 319.853795l-46.836725-23.404036c-11.562337-5.811356-25.616424-1.107217-31.407314 10.475586-5.780657 11.543917-1.098008 25.617447 10.466376 31.388894l46.836725 23.442922c3.359514 1.660826 6.927783 2.451842 10.457166 2.451842 8.578376 0 16.850783-4.744048 20.962427-12.927427C731.341079 339.697749 726.64615 325.624219 715.081767 319.853795z" fill="#ffffff" /><path d="M496.673431 341.674777l-40.697911 51.43137c-8.024767 10.159384-6.305613 24.866341 3.834328 32.892131 4.298909 3.399423 9.428743 5.059226 14.508435 5.059226 6.918573 0 13.757329-3.043313 18.383696-8.894577l40.698934-51.43137c8.024767-10.160407 6.304589-24.866341-3.835352-32.892131C519.415388 329.814658 504.699222 331.554278 496.673431 341.674777z" fill="#ffffff" /><path d="M337.119529 295.42236l-44.51382 27.554566c-10.990309 6.79987-14.389732 21.228487-7.580652 32.218796 4.437056 7.194866 12.097526 11.107989 19.934005 11.107989 4.199649 0 8.469905-1.146103 12.314467-3.518127l44.51382-27.593452c10.990309-6.79987 14.379499-21.22951 7.570419-32.218796C362.558921 291.982004 348.109838 288.582581 337.119529 295.42236z" fill="#ffffff" /></svg>