<?xml version="1.0" standalone="no"?><!DOCTYPE svg PUBLIC "-//W3C//DTD SVG 1.1//EN" "http://www.w3.org/Graphics/SVG/1.1/DTD/svg11.dtd"><svg class="icon" width="200px" height="197.11px" viewBox="0 0 1039 1024" version="1.1" xmlns="http://www.w3.org/2000/svg"><path d="M0.569982 939.336762 0.569982 238.774175l252.190743 0 0-98.078783L252.760724 112.679315 252.760724 84.662215l518.434549 0L771.195274 112.679315l0 28.016077 0 98.078783 252.190743 0L1023.386016 939.336762 0.569982 939.336762 0.569982 939.336762zM715.140607 140.695393 308.815391 140.695393l0 98.078783L715.140607 238.774175 715.140607 140.695393 715.140607 140.695393zM967.353862 294.828842 56.602136 294.828842l0 588.474742 910.751726 0L967.353862 294.828842 967.353862 294.828842zM476.957903 392.908648l56.032154 0 0 182.15055L715.140607 575.059198l0 56.032154L532.990057 631.091352l0 168.142511-56.032154 0L476.957903 631.091352 308.815391 631.091352l0-56.032154 168.142511 0L476.957903 392.908648 476.957903 392.908648z" fill="#ffffff" /></svg>