<?xml version="1.0" standalone="no"?><!DOCTYPE svg PUBLIC "-//W3C//DTD SVG 1.1//EN" "http://www.w3.org/Graphics/SVG/1.1/DTD/svg11.dtd"><svg class="icon" width="200px" height="200.00px" viewBox="0 0 1024 1024" version="1.1" xmlns="http://www.w3.org/2000/svg"><path d="M388.25414 960.869171l0.011256 0c-33.577746 0-64.377216-7.863085-91.566462-23.397896-29.04143-16.58984-51.697429-42.157145-70.88442-71.577199-2.558265-4.604878-2.814092-5.116531-5.395894-9.841136-28.962635-53.004191 3.577478-136.894833 82.809007-199.290929 43.186591-33.998325 90.929965-53.493332 131.004683-53.493332 29.78435 0 53.893444 10.921747 68.489884 30.894637 3.125177 2.045589 8.338922 4.716418 12.615319 4.716418 1.226944 0 3.780093 0 7.604188-4.328585 0.249687-0.258896 0.496304-0.517793 0.74599-0.799202 22.309098-28.933983 42.927695-60.08854 61.328787-92.621491 16.901948-29.903054 31.862685-60.822251 44.478004-91.973738 1.74576-9.847276 0.431835-14.758122-0.689708-16.137539-0.807389-0.991584-3.209088-1.638313-3.230578-1.638313-21.836331-0.515746-41.34464-10.340509-56.867172-28.395724-29.215392-33.997302-41.636283-93.764524-33.212426-159.886477 12.904914-101.369735 68.502164-177.810708 129.324414-177.810708 0.193405 0 1.528819 0.021489 1.732457 0.021489 2.88777 0.065492 5.709025 0.344854 8.478092 0.775666 37.33635-1.658779 71.680553 6.118348 101.531418 23.160489 138.167826 78.94091 141.076062 327.054801 6.635117 564.845579C679.434895 837.589426 520.724197 960.869171 388.25414 960.869171zM434.23231 653.638881c-28.559453 0-65.875337 15.963577-99.840916 42.700521-59.226916 46.623877-85.359087 107.910709-71.993684 132.970454 2.046612 3.837398 3.481288 6.242168 4.604878 8.18645 13.302981 23.024389 33.208333 43.957141 54.68753 56.238862 19.476587 11.139711 41.872666 16.761756 66.562998 16.761756 113.099894 0 257.461793-115.629507 351.0851-281.204543 116.591415-206.206432 122.194016-433.485809 12.226462-496.309646-22.062482-12.58155-48.088228-18.141172-76.538187-16.439414-2.088568 0.107447-4.179183-0.020466-6.224772-0.409322-1.14201-0.236384-2.305509-0.429789-3.491521-0.473791-29.91431 0-70.095451 57.224306-79.844489 133.816728-6.453992 50.631144 1.960655 98.007151 21.437242 120.673383 9.134031 10.621918 16.880459 10.793834 19.421328 10.859325 2.187829 0 25.778106 0.732687 41.635259 20.316721 12.097526 14.932084 15.621792 35.161824 10.471492 60.08854-0.302899 1.464351-0.733711 2.90926-1.292436 4.310166-13.639648 33.932834-29.882588 67.650773-48.28368 100.205213-20.079314 35.504632-42.668799 69.482491-67.155493 101.001345-1.086751 1.401929-2.304486 2.671852-3.620457 3.793396-11.914354 12.130272-26.618241 18.526959-42.744523 18.526959-25.573445 0-45.415352-16.545838-47.593971-18.443048-1.88493-1.636267-3.533476-3.552919-4.857635-5.687536C456.949708 655.620002 444.024328 653.638881 434.23231 653.638881zM354.773607 483.993133c-12.033058 0-22.720468-8.596795-24.970718-20.853957-4.254907-23.204491 0.786922-46.688345 14.187117-66.122977 13.412474-19.413142 33.57877-32.467459 56.792471-36.712133 13.833053-2.521426 27.050076 6.613628 29.580712 20.425192 2.533706 13.809517-6.613628 27.059286-20.423145 29.578666-9.856485 1.810229-18.421558 7.347339-24.109094 15.59928-5.698792 8.229428-7.831362 18.204617-6.033413 28.073382 2.542916 13.809517-6.603395 27.037796-20.413935 29.580712C357.843526 483.84066 356.291171 483.993133 354.773607 483.993133zM268.883425 482.160391c-12.033058 0-22.718421-8.574283-24.959461-20.832468-15.44783-84.199681 40.48404-165.249625 124.680651-180.676989 13.766538-2.51938 27.050076 6.614651 29.581736 20.423145 2.530636 13.789051-6.614651 27.04189-20.413935 29.561269-56.620555 10.384511-94.237291 64.895009-83.85278 121.513518 2.53166 13.811564-6.614651 27.060309-20.425192 29.581736C271.954367 482.010989 270.404058 482.160391 268.883425 482.160391zM170.498674 509.910409c-12.032034 0-22.719444-8.572236-24.969695-20.832468-12.841469-70.042239 2.358721-140.883681 42.808992-199.484334 40.440038-58.602699 101.283778-97.943706 171.326017-110.785176 13.777795-2.520403 27.03882 6.613628 29.580712 20.424168 2.53166 13.81054-6.613628 27.03882-20.424168 29.581736-56.673767 10.382465-105.914238 42.22673-138.652873 89.647763-32.726356 47.441499-45.029566 104.773252-34.645055 161.458275 2.53166 13.789051-6.602372 27.03882-20.412912 29.582759C173.558359 509.783519 172.018284 509.910409 170.498674 509.910409z" fill="#ffffff" /></svg>