<?xml version="1.0" standalone="no"?><!DOCTYPE svg PUBLIC "-//W3C//DTD SVG 1.1//EN" "http://www.w3.org/Graphics/SVG/1.1/DTD/svg11.dtd"><svg class="icon" width="200px" height="200.00px" viewBox="0 0 1024 1024" version="1.1" xmlns="http://www.w3.org/2000/svg"><path d="M-473.554846 981.684529" fill="#ffffff" /><path d="M958.634638 412.833865c0-17.029397-13.761129-30.274483-30.274483-30.274483-16.685369 0-30.274483 13.417101-30.274483 30.274483l0 53.15236L574.011087 465.986225c-1.720141 0-3.268268-1.376113-3.268268-3.268268L570.742819 61.409037l-61.753066 0-0.344028 0C264.04166 63.129179 65.365362 263.697631 65.365362 508.129683c0 89.96338 26.662187 176.658492 77.234336 250.968587 0.344028 0.688056 0.688056 1.720141 0.344028 2.580212-0.344028 0.688056-0.688056 1.376113-1.720141 1.720141-35.778935 17.373425-59.172854 54.184445-59.172854 94.263733 0 57.796741 46.959852 104.412565 104.412565 104.412565 43.003528 0 81.19066-25.974131 97.187972-66.053418 0.344028-0.688056 1.032085-1.376113 1.720141-1.720141 0.344028 0 0.688056 0 1.032085 0 0.344028 0 1.032085 0 1.376113 0.344028 67.945574 39.391231 145.179909 60.032925 223.618344 60.032925 77.234336 0 153.436587-20.297665 220.694104-58.484798 0.344028-0.344028 1.032085-0.344028 1.376113-0.344028s0.688056 0 1.032085 0c0.688056 0.344028 1.376113 1.032085 1.720141 1.720141 16.169326 39.047203 54.184445 64.333277 96.499916 64.333277 57.796741 0 104.412565-46.959852 104.412565-104.412565 0-39.047203-21.673778-74.826138-56.420628-92.88762-0.688056-0.344028-1.376113-1.032085-1.376113-1.720141 0-0.688056 0-1.720141 0.344028-2.580212 47.30388-68.977658 74.48211-149.136234 78.094406-232.563077 0-0.688056 0.344028-1.032085 0.344028-1.376113l0-2.064169c0.172014-1.376113 0.344028-2.92424 0.344028-4.472367L958.462624 412.833865zM508.473711 121.78599c0.688056 0 1.376113 0.344028 2.236183 0.688056 0.688056 0.688056 1.032085 1.376113 1.032085 2.236183L511.741979 462.717957c0 1.720141-1.376113 3.268268-3.268268 3.268268L131.074752 465.986225c-0.688056 0-1.720141-0.344028-2.236183-1.032085-0.688056-0.688056-0.688056-1.376113-0.688056-2.580212C151.028389 269.890139 314.613808 123.506131 508.473711 121.78599zM186.807324 897.913657c-22.017806 0-40.079288-18.061482-40.079288-40.079288 0-22.017806 18.061482-40.079288 40.079288-40.079288 0.344028 0 1.032085 0 1.376113 0l0.344028 0c0.688056 0 1.720141 0.344028 2.236183 1.032085 10.836889 11.180917 22.705863 22.361834 34.74685 32.510667 0.688056 0.688056 1.032085 1.720141 1.032085 2.580212 0 1.032085-0.344028 2.236183 0 3.268268l0.344028 0.688056C226.886612 879.852175 208.82513 897.913657 186.807324 897.913657zM833.236351 897.913657c-22.017806 0-40.079288-18.061482-40.079288-40.079288l0-1.376113c0-1.032085 0.344028-1.720141 1.032085-2.580212 13.417101-10.836889 25.974131-22.705863 38.359147-35.090879 0.688056-0.688056 1.376113-1.032085 2.236183-1.032085 21.673778 0.688056 38.359147 18.40551 38.359147 40.079288C873.315639 879.852175 855.254158 897.913657 833.236351 897.913657zM511.741979 894.645389c-205.90089 0-375.678817-161.005207-386.171678-366.56207 0-0.688056 0.344028-1.720141 0.688056-2.236183 0.344028-0.344028 1.376113-1.032085 2.236183-1.032085l766.150848 0c1.032085 0.344028 1.720141 0.688056 2.580212 1.032085 0.688056 0.688056 0.688056 1.376113 0.688056 2.236183C887.420796 733.640181 717.642869 894.645389 511.741979 894.645389z" fill="#ffffff" /></svg>