<?xml version="1.0" standalone="no"?><!DOCTYPE svg PUBLIC "-//W3C//DTD SVG 1.1//EN" "http://www.w3.org/Graphics/SVG/1.1/DTD/svg11.dtd"><svg class="icon" width="200px" height="200.00px" viewBox="0 0 1024 1024" version="1.1" xmlns="http://www.w3.org/2000/svg"><path d="M213 897.1c-22.7 0-44-8.8-60-24.9-15.2-15.1-23.5-34.7-23.6-55 0-20.5 8.6-40.8 23.6-55.8l247.4-234.8c0-0.5 0.1-1 0.1-1.5-0.3-30-0.4-70 0.8-94 2.6-55.5 30.5-85.3 42.4-95.5l197.9-197.9c20.7-20.7 54.5-20.7 75.2 0 20.7 20.7 20.7 54.4 0 75.2l-152.7 152c-0.7 2.4-1 4.8-1 6.3 0 7.4 6 13.4 13.5 13.4 0.6 0 2.4 0 5.6-1.9l155.4-155.4c20-20.1 55.1-20.1 75.2 0 20.7 20.7 20.7 54.4 0 75.1L658.5 456.8c-1.5 2.8-1.7 4.4-1.7 5.4 0 7.4 6 13.4 13.5 13.4 1.7 0 3.9-0.8 6.6-2.4 0.2-0.1 0.4-0.2 0.5-0.3l148.2-148.2c20.7-20.7 54.4-20.7 75.1 0 20.7 20.7 20.7 54.4 0 75.1l-199 199c-9.2 10.7-39 38.6-94.4 41.2-22.5 1.1-59.7 1.1-90.5 0.8L272.5 872.6c-15.5 15.6-36.8 24.5-59.5 24.5z m230.2-366.3c-0.1 1.1-0.1 3-0.2 5.8-0.1 5.7-2.5 11.2-6.7 15.1L183 792.1c-6.6 6.6-10.6 15.9-10.6 25 0 9 3.8 17.5 11 24.6 15.8 15.9 43.3 15.8 59 0.1l251.1-238.2c4.1-3.9 8.9-6 15-5.9 31.3 0.3 72.6 0.5 96.7-0.7 39.8-1.9 59.8-21.5 65-27.5l200.1-200.2c3.9-3.9 3.9-10.3 0-14.3-3.9-3.9-10.4-4-14.3 0L703.6 507.4c-3 3-6.6 4.9-10.5 5.8-7.6 3.6-15.2 5.4-22.9 5.4-31.1 0-56.5-25.3-56.5-56.4 0-8.7 2.3-17.2 6.9-25.8 1.1-2.7 2.6-5.2 4.7-7.2l157.1-157c3.9-3.9 3.9-10.4 0-14.3-2.6-2.6-5.6-3-7.2-3-1.6 0-4.6 0.4-7.1 3L611 414.8c-1 1-2 1.8-3.2 2.6-10 6.8-20.6 10.2-31.3 10.2-31.1 0-56.5-25.3-56.5-56.5 0-8.1 2-17.9 5.4-26.1 1.1-2.6 2.7-5 4.7-7.1l156-155.7c3.9-3.9 3.9-10.4 0-14.3-4-4-10.4-3.9-14.3 0l-199 199c-7.1 6.2-26.8 26.1-28.6 66-1.1 23.5-1 63.8-0.7 93.5 0.1 1.5-0.1 3-0.3 4.4z" fill="#ffffff" /><path d="M345 618.1c-5.5 0-11-2.1-15.2-6.3L145.2 426.9c-0.9-0.9-1.7-1.9-2.4-2.9-2.2-3.2-22-33.6-31.7-111.2-7.4-59.3-0.2-104 0.1-105.8 1.3-5.5 10.4-39.4 38.4-53.1 10.8-5.3 28.4-9.4 51.3 0.8 2.4 1.1 4.6 2.6 6.4 4.5l234 234.2c8.4 8.4 8.4 22 0 30.4-8.4 8.4-22 8.4-30.4 0L180.1 192.7c-7.1-2.4-10.5-0.7-11.7-0.2-8.2 4-14 18.3-15.2 23.1 0.1 0-6 39.9 0.5 91.9 7.2 58.1 20.4 84.8 23.8 90.9l182.7 183c8.4 8.4 8.4 22 0 30.4-4.2 4.2-9.7 6.3-15.2 6.3zM703.1 902c-16.8 0-34.7-7.4-53.4-26.1l-192-192.3c-8.4-8.4-8.4-22 0-30.4 8.4-8.4 22-8.4 30.4 0l192 192.3c16 16 25.7 25.8 67.5-16 23-23-2.8-50.8-5.8-53.9L593 626.4c-8.4-8.4-8.4-22 0-30.4 8.4-8.4 22-8.4 30.4 0l149.1 149.4c23.9 24.5 45 75.1 5.6 114.5-22.2 22.2-47.3 42.1-75 42.1z" fill="#ffffff" /></svg>