<?xml version="1.0" standalone="no"?><!DOCTYPE svg PUBLIC "-//W3C//DTD SVG 1.1//EN" "http://www.w3.org/Graphics/SVG/1.1/DTD/svg11.dtd"><svg class="icon" width="200px" height="200.00px" viewBox="0 0 1024 1024" version="1.1" xmlns="http://www.w3.org/2000/svg"><path d="M600.2688 677.410133a51.427556 51.427556 0 0 0 51.473067 51.4048 51.427556 51.427556 0 0 0 51.473066-51.427555 51.427556 51.427556 0 0 0-51.473066-51.382045 51.427556 51.427556 0 0 0-51.473067 51.4048zM318.737067 677.410133a51.427556 51.427556 0 0 0 51.473066 51.4048 51.427556 51.427556 0 0 0 51.495823-51.427555 51.427556 51.427556 0 0 0-51.495823-51.382045 51.427556 51.427556 0 0 0-51.473066 51.4048zM448.534756 227.555556h126.976c8.942933 0 16.133689-5.12 16.133688-11.400534 0-6.303289-7.259022-11.355022-16.110933-11.355022h-126.976c-8.942933 0-16.201956 5.12-16.201955 11.355022-0.068267 6.280533 7.259022 11.400533 16.1792 11.400534z" fill="#ffffff" /><path d="M511.863467 0.295822C229.102933 0.295822 0 229.125689 0 511.431111s229.102933 511.135289 511.863467 511.135289c282.692267 0 511.863467-228.829867 511.863466-511.135289S794.555733 0.295822 511.863467 0.295822zM750.865067 665.144889c0 51.291022-40.891733 92.9792-91.386311 92.9792h2.412088l79.963023 106.860089h-70.223645l-36.135822-54.772622h-244.622222l-36.022045 54.772622h-70.291911l79.963022-106.860089C314.026667 758.146844 273.066667 716.458667 273.066667 665.167644V276.593778c0-51.427556 40.96-93.070222 91.477333-93.070222H455.111111a35.84 35.84 0 0 1 12.288-69.472712 35.84 35.84 0 0 1 12.219733 69.563734h64.671289a35.908267 35.908267 0 0 1 12.242489-69.540978c19.797333 0 35.726222 16.088178 35.726222 35.908267 0 15.496533-9.739378 28.558222-23.438222 33.632711h90.7264c50.494578 0 91.386311 41.642667 91.386311 93.070222V665.144889h-0.068266z" fill="#ffffff" /><path d="M639.431111 273.066667H384.637156C360.743822 273.066667 341.333333 293.4784 341.333333 318.805333v67.879823c0 25.258667 19.342222 45.6704 43.281067 45.6704H639.431111C663.369956 432.355556 682.666667 411.943822 682.666667 386.685156v-67.970845C682.666667 293.4784 663.324444 273.066667 639.431111 273.066667z" fill="#ffffff" /></svg>