<?xml version="1.0" standalone="no"?><!DOCTYPE svg PUBLIC "-//W3C//DTD SVG 1.1//EN" "http://www.w3.org/Graphics/SVG/1.1/DTD/svg11.dtd"><svg class="icon" width="200px" height="200.00px" viewBox="0 0 1024 1024" version="1.1" xmlns="http://www.w3.org/2000/svg"><path d="M930.380274 436.032818 604.265892 97.625458c-24.269753-25.189705-56.704466-39.051411-91.381244-39.051411-34.655288 0-67.11149 13.861706-91.382267 39.051411l-34.139541 35.416628c-5.203512-5.024433-12.246929-8.16496-20.052708-8.16496L191.052802 124.877125c-15.97074 0-28.912493 12.942777-28.912493 28.891004l0 212.998115-66.729797 69.26555c-36.875862 38.244023-31.962969 68.457138-25.750477 83.059718 6.189979 14.601556 24.538883 39.096437 77.676104 39.096437l18.011212 0 0 376.404766c0 15.947204 12.942777 28.888957 28.889981 28.888957l637.291564 0c15.969717 0 28.889981-12.941753 28.889981-28.888957L860.418876 558.188972l18.012236 0c53.138244 0 71.485101-24.49488 77.69964-39.096437C962.344267 504.489956 967.234647 474.253304 930.380274 436.032818zM219.943806 182.659133l118.477368 0 0 1.189082-118.477368 122.940007L219.943806 182.659133zM613.86655 905.70171l-86.312808 0L527.553743 701.295274l86.312808 0L613.86655 905.70171zM802.639938 905.70171 671.646512 905.70171 671.646512 672.403247c0-15.948227-12.920264-28.888957-28.888957-28.888957L498.640226 643.514289c-15.947204 0-28.912493 12.94073-28.912493 28.888957l0 233.298464L223.128335 905.70171 223.128335 558.188972l579.511603 0L802.639938 905.70171zM878.432135 500.406964 147.336138 500.406964c-13.750165 0-21.151739-2.534729-23.978111-4.149507 0.807389-3.118014 4.105504-10.227945 13.660114-20.142759l326.115406-338.384847c26.51284-27.566846 72.966848-27.566846 99.500155 0l326.138942 338.384847c9.55461 9.914814 12.82919 17.024745 13.636578 20.142759C899.60741 497.872235 892.205836 500.406964 878.432135 500.406964z" fill="#ffffff" /></svg>