<?xml version="1.0" standalone="no"?><!DOCTYPE svg PUBLIC "-//W3C//DTD SVG 1.1//EN" "http://www.w3.org/Graphics/SVG/1.1/DTD/svg11.dtd"><svg class="icon" width="200px" height="200.00px" viewBox="0 0 1024 1024" version="1.1" xmlns="http://www.w3.org/2000/svg"><path d="M662.551347 328.014643l0 534.248723c0 10.187059-1.844122 20.067021-5.576192 29.681971-3.733197 9.571021-9.353421 18.352947-16.817664 26.432-7.463322 8.078029-16.509645 14.574899-27.134054 19.316941-10.626458 4.832051-23.09591 7.203021-37.499597 7.203021l-98.263934 0c-29.244211 0-50.669056-8.693965-64.193638-26.079949-13.479526-17.300992-20.196762-37.672038-20.196762-61.02999L392.869506 328.014662 662.551395 328.014662 662.551347 328.014643zM608.28119 269.619712 446.261651 269.619712l0-95.188966c0-10.185011 0.570982-18.263962 1.755034-24.237056 1.141043-5.96992 3.162112-11.061965 6.015283-15.276954 2.856141-4.217037 6.630298-8.253952 11.196416-12.11904 4.567245-3.861914 10.056397-8.826061 16.378675-14.841037 18.396774-17.29792 33.150362-30.380954 44.389786-39.032013 11.196416-8.651059 21.383885-14.534042 30.559232-17.519002 13.261619-4.784947 23.446938-6.585958 30.603264-5.356032 7.202304 1.140941 12.338483 4.477952 15.500698 9.835008 3.160064 5.445018 4.917146 12.294042 5.180211 20.635955 0.306995 8.429978 0.438989 17.123021 0.438989 26.079949L608.279239 269.619694 608.28119 269.619712zM608.28119 269.619712" fill="#ffffff" /></svg>