<?xml version="1.0" standalone="no"?><!DOCTYPE svg PUBLIC "-//W3C//DTD SVG 1.1//EN" "http://www.w3.org/Graphics/SVG/1.1/DTD/svg11.dtd"><svg class="icon" width="200px" height="200.00px" viewBox="0 0 1024 1024" version="1.1" xmlns="http://www.w3.org/2000/svg"><path d="M804.650735 321.825706 620.839359 321.825706c-6.045693 0-11.530614 2.441609-15.493879 6.365988l-78.794577 0 0-30.869055c0-12.171204-9.889231-22.060435-22.060435-22.060435-40.578184 0-73.568553-32.990369-73.568553-73.54911 0-40.557718 32.990369-73.589019 73.568553-73.589019 40.557718 0 73.548086 33.031301 73.548086 73.589019 0 12.171204 9.889231 22.060435 22.061458 22.060435 12.190647 0 22.060435-9.889231 22.060435-22.060435 0-64.900126-52.789297-117.668956-117.668956-117.668956-64.900126 0-117.690446 52.768831-117.690446 117.668956 0 57.3338 41.238216 105.258299 95.630011 115.627461l0 10.850116-62.85863 0c-3.964288-3.923356-9.449209-6.365988-15.494902-6.365988L220.266148 321.824683c-50.547233 0-91.645257 41.11849-91.645257 91.645257l0 253.595742c0 12.171204 9.869788 22.062482 22.060435 22.062482l102.415554 0-17.636682 226.330772c-0.460488 6.124488 1.62194 12.171204 5.806239 16.693194 4.183276 4.52506 10.029424 7.088442 16.194844 7.088442l509.995343 0c6.145977 0 12.010545-2.563382 16.175401-7.088442 4.183276-4.523013 6.28617-10.568706 5.805216-16.693194l-17.615193-226.330772 102.414531 0c12.172227 0 22.060435-9.891278 22.060435-22.062482l0-253.595742C896.295991 362.944196 855.177502 321.825706 804.650735 321.825706zM593.854774 372.312564c-11.771091 33.670867-43.760666 57.894571-81.396845 57.894571-37.634132 0-69.62473-24.222681-81.395822-57.894571L593.854774 372.312564zM852.175121 645.007293l-83.797521 0-8.348132-107.179045c-0.941442-12.131295-11.530614-21.099551-23.701818-20.259416-12.151761 0.959861-21.220301 11.570523-20.278859 23.700795L743.61359 895.119701 281.303292 895.119701l27.565822-353.850074c0.940418-12.130272-8.147564-22.740934-20.298302-23.700795-12.07092-0.919952-22.741957 8.127098-23.702841 20.259416l-8.327666 107.179045-83.798545 0L172.741761 413.470963c0-26.224268 21.300119-47.524386 47.524386-47.524386l163.632801 0c10.488889 61.457724 64.139809 108.381429 128.558981 108.381429 64.400752 0 118.049626-46.923706 128.561028-108.381429l163.631778 0c26.203802 0 47.523363 21.299095 47.523363 47.524386L852.174098 645.007293z" fill="#ffffff" /></svg>