<?xml version="1.0" standalone="no"?><!DOCTYPE svg PUBLIC "-//W3C//DTD SVG 1.1//EN" "http://www.w3.org/Graphics/SVG/1.1/DTD/svg11.dtd"><svg class="icon" width="200px" height="200.00px" viewBox="0 0 1024 1024" version="1.1" xmlns="http://www.w3.org/2000/svg"><path d="M517.482667 242.432c66.858667 0 121.237333-54.378667 121.237333-121.216C638.698667 54.378667 584.298667 0 517.482667 0c-66.837333 0-121.216 54.378667-121.216 121.216C396.266667 188.053333 450.645333 242.432 517.482667 242.432zM517.482667 42.709333c43.306667 0 78.485333 35.221333 78.485333 78.485333 0 43.285333-35.157333 78.485333-78.485333 78.485333-43.285333 0-78.485333-35.221333-78.485333-78.485333C438.997333 77.930667 474.197333 42.709333 517.482667 42.709333z" fill="#ffffff" /><path d="M817.002667 932.394667l-203.285333-293.653333 0-141.504 38.464 38.464c1.621333 1.664 3.498667 3.008 5.546667 4.010667l59.541333 29.781333c8.490667 4.245333 17.749333 6.421333 27.050667 6.421333 7.872 0 15.701333-1.514667 23.082667-4.629333 16.256-6.698667 28.672-20.096 34.24-36.714667 9.365333-28.373333-3.584-59.84-30.293333-73.237333l-64.490667-32.213333-96.704-145.066667c-0.426667-0.618667-1.045333-0.938667-1.493333-1.493333-0.896-1.109333-1.856-2.048-2.965333-2.965333-1.109333-0.896-2.218667-1.664-3.456-2.325333-1.130667-0.618667-2.282667-1.066667-3.541333-1.450667-1.429333-0.448-2.858667-0.746667-4.373333-0.896-0.682667-0.064-1.28-0.405333-1.962667-0.405333l-149.781333 0c-4.992 0-9.834667 1.749333-13.674667 4.949333l-149.781333 124.821333c-2.261333 1.898667-4.096 4.202667-5.418667 6.869333l-61.930667 123.861333c-12.437333 24.789333-2.325333 55.104 22.528 67.584 22.698667 11.392 52.672 2.624 65.685333-19.136l57.898667-96.448 63.36-31.68 0 186.666667-43.968 131.861333L255.36 773.866667c-32.405333 0-58.794667 26.346667-58.794667 58.794667s26.368 58.858667 58.794667 58.858667l212.181333 0c6.72 0 13.077333-3.221333 17.066667-8.597333l62.912-83.818667 177.472 204.778667c11.050667 12.8 27.114667 20.117333 44.032 20.117333 15.616 0 30.293333-6.037333 41.258667-17.109333C830.250667 986.965333 833.088 955.648 817.002667 932.394667zM682.688 464.832l69.568 34.730667c7.765333 3.925333 11.626667 13.162667 8.810667 21.461333-2.218667 6.656-7.210667 9.578667-10.005333 10.730667-2.730667 1.258667-8.405333 2.645333-14.677333-0.490667l-56.448-28.202667-66.218667-66.197333 0-70.378667 60.778667 91.114667C676.522667 460.672 679.424 463.168 682.688 464.832zM456.874667 848.768 255.36 848.768c-8.874667 0-16.064-7.210667-16.064-16.085333s7.189333-16.064 16.064-16.064l137.301333 0c9.194667 0 17.365333-5.930667 20.266667-14.634667l38.08-114.218667 67.882667 78.314667L456.874667 848.768zM780.117333 976.704c-2.965333 2.944-6.869333 4.565333-11.093333 4.565333-2.666667 0-7.701333-0.704-11.797333-5.397333L463.957333 637.461333l-0.021333-216.746667c0-7.424-3.861333-14.293333-10.133333-18.176-6.293333-3.882667-14.165333-4.245333-20.778667-0.938667l-99.84 49.941333c-3.648 1.813333-6.677333 4.650667-8.768 8.128l-61.098667 101.781333c-2.56 4.288-6.997333 4.373333-9.92 2.965333-3.754667-1.856-5.290667-6.506667-3.413333-10.24l59.946667-119.850667 140.394667-116.992 120.682667 0 0 328.106667c0 4.330667 1.344 8.576 3.797333 12.16l207.125333 299.093333C786.218667 962.965333 785.450667 971.370667 780.117333 976.704z" fill="#ffffff" /></svg>