<?xml version="1.0" standalone="no"?><!DOCTYPE svg PUBLIC "-//W3C//DTD SVG 1.1//EN" "http://www.w3.org/Graphics/SVG/1.1/DTD/svg11.dtd"><svg class="icon" width="200px" height="200.00px" viewBox="0 0 1024 1024" version="1.1" xmlns="http://www.w3.org/2000/svg"><path d="M716.944184 324.142471l-5.838985 0 0-81.527828-53.226249 0 0 81.527828L365.119233 324.142471l0-81.527828-53.206806 0 0 81.527828-5.878894 0c-67.182099 0-121.836883 54.635341-121.836883 121.836883l0 348.782661c0 67.199495 54.655807 121.857349 121.836883 121.857349l19.170618 0 0 7.598049c0 19.605523 15.900132 35.484166 35.484166 35.484166 19.585057 0 35.485189-15.878642 35.485189-35.484166l0-7.598049 230.671637 0 0 7.598049c0 19.605523 15.879666 35.484166 35.485189 35.484166 19.584034 0 35.483142-15.878642 35.483142-35.484166l0-7.598049 19.130709 0c67.200518 0 121.856325-54.657854 121.856325-121.857349L838.800509 445.978331C838.800509 378.776789 784.144702 324.142471 716.944184 324.142471zM783.047718 794.760992c0 36.434817-29.647227 66.082044-66.103534 66.082044L306.03251 860.843036c-36.437887 0-66.085114-29.647227-66.085114-66.082044L239.947396 445.978331c0-36.436864 29.647227-66.084091 66.085114-66.084091l410.911674 0c36.456307 0 66.103534 29.647227 66.103534 66.084091L783.047718 794.760992z" fill="#ffffff" /><path d="M369.486704 460.138842c-14.699794 0-26.603915 11.924587-26.603915 26.624381l0 267.212878c0 14.69877 11.904121 26.624381 26.603915 26.624381 14.72026 0 26.624381-11.924587 26.624381-26.624381L396.111085 486.763223C396.111085 472.064452 384.206964 460.138842 369.486704 460.138842z" fill="#ffffff" /><path d="M653.510456 460.138842c-14.699794 0-26.602891 11.924587-26.602891 26.624381l0 267.212878c0 14.69877 11.903098 26.624381 26.602891 26.624381 14.697747 0 26.623357-11.924587 26.623357-26.624381L680.133813 486.763223C680.133813 472.064452 668.208203 460.138842 653.510456 460.138842z" fill="#ffffff" /><path d="M365.119233 179.014116c0-34.241872 27.865651-62.08808 62.108546-62.08808l168.564114 0c34.240849 0 62.08808 27.845185 62.08808 62.08808l0 28.115338 53.226249 0 0-28.115338c0-63.579037-51.737338-115.314329-115.314329-115.314329L427.22778 63.699788c-63.599504 0-115.315352 51.736315-115.315352 115.314329l0 28.115338 53.206806 0L365.119233 179.014116z" fill="#ffffff" /></svg>