<?xml version="1.0" standalone="no"?><!DOCTYPE svg PUBLIC "-//W3C//DTD SVG 1.1//EN" "http://www.w3.org/Graphics/SVG/1.1/DTD/svg11.dtd"><svg class="icon" width="200px" height="200.00px" viewBox="0 0 1024 1024" version="1.1" xmlns="http://www.w3.org/2000/svg"><path d="M903.966695 700.247408 602.093413 325.978283c0.403183-5.686513 0.868787-11.330046 0.868787-17.141402 0-135.12656-109.933785-245.060345-245.071601-245.060345-135.147026 0-245.081835 109.934808-245.081835 245.060345 0 135.136793 109.934808 245.070578 245.081835 245.070578 5.78168 0 11.455913-0.466628 17.132192-0.847298l374.235356 301.883515c5.028527 4.02978 11.085476 6.024204 17.119913 6.024204 7.011694 0 14.002922-2.671852 19.285229-7.976672l21.341051-21.340027c0.040932 8.228405-1.01819 16.927531-4.158716 25.454742-7.021927 18.96698-23.557532 34.07098-49.143257 44.804439-30.124088 12.68695-76.985372-9.289574-131.244136-34.70543-99.908454-46.840818-236.712213-110.995977-383.123794 3.734044-11.860119 9.29162-13.928221 26.476001-4.647857 38.311561 9.29162 11.837606 26.435069 13.916964 38.293141 4.626367 119.989815-94.065376 229.604328-42.642193 326.332347 2.714831 47.416939 22.234397 92.857874 43.532469 134.733611 43.532469 14.023388 0 27.665083-2.376117 40.828894-7.933693 40.030715-16.844643 66.655096-42.472324 79.118965-76.203566 13.035898-35.217083 6.576789-70.261227 0.044002-91.3925l47.985898-47.987944C911.876851 726.764342 912.726196 711.064778 903.966695 700.247408zM167.350984 308.836881c0-105.054661 85.473697-190.517101 190.539614-190.517101 105.055684 0 190.529381 85.46244 190.529381 190.517101s-85.473697 190.548824-190.529381 190.548824C252.824681 499.385704 167.350984 413.891542 167.350984 308.836881zM764.427638 797.111526 443.481975 538.209942c66.295915-24.865317 118.916367-77.476559 143.749962-143.752008l258.902608 320.93543-38.642089 38.651298c-3.53143 2.249227-6.417153 5.133927-8.528234 8.529257L764.427638 797.111526zM600.172667 515.89061c-10.660804-10.649548-27.918863-10.649548-38.568411 0-10.648524 10.648524-10.648524 27.918863 0 38.568411l59.093886 59.104119c5.325285 5.303796 12.304234 7.977695 19.284205 7.977695 6.970762 0 13.948687-2.673899 19.273972-7.977695 10.660804-10.649548 10.660804-27.91784 0-38.567387L600.172667 515.89061z" fill="#ffffff" /></svg>