<?xml version="1.0" standalone="no"?><!DOCTYPE svg PUBLIC "-//W3C//DTD SVG 1.1//EN" "http://www.w3.org/Graphics/SVG/1.1/DTD/svg11.dtd"><svg class="icon" width="200px" height="200.00px" viewBox="0 0 1024 1024" version="1.1" xmlns="http://www.w3.org/2000/svg"><path d="M731.3 296.1c-120.7-120.7-316.4-120.7-437 0s-120.7 316.4 0 437c120.7 120.7 316.4 120.7 437 0 120.6-120.7 120.6-316.4 0-437z m-93.4 395.1L512.6 566 387.9 690.7c-14.1 14.1-36.9 14.1-50.9 0-14.1-14.1-14.1-36.9 0-50.9l124.7-124.7-124.3-124.4c-14.1-14.1-14.1-36.9 0-50.9 14.1-14.1 36.9-14.1 50.9 0l124.4 124.4L639 337.9c14.1-14.1 36.9-14.1 50.9 0 14.1 14.1 14.1 36.9 0 50.9L563.5 515.1l125.3 125.3c14.1 14.1 14.1 36.9 0 50.9s-36.9 14-50.9-0.1z" fill="#8a8a8a" /></svg>