<?xml version="1.0" standalone="no"?><!DOCTYPE svg PUBLIC "-//W3C//DTD SVG 1.1//EN" "http://www.w3.org/Graphics/SVG/1.1/DTD/svg11.dtd"><svg t="1557393339795" class="icon" style="" viewBox="0 0 1060 1024" version="1.1" xmlns="http://www.w3.org/2000/svg" p-id="8689" xmlns:xlink="http://www.w3.org/1999/xlink" width="207.03125" height="200"><defs><style type="text/css"></style></defs><path d="M471.685039 943.370079a471.685039 471.685039 0 1 1 471.68504-471.68504H471.685039z m74.582678 74.582677V548.283465h473.700787a471.685039 471.685039 0 0 1-471.685039 471.685039zM979.653543 584.566929H584.566929v395.086614c189.480315 0 395.086614-197.543307 395.086614-395.086614z" fill="#ffffff" p-id="8690"></path><path d="M512 943.370079a471.685039 471.685039 0 1 1 471.685039-471.68504H512z m74.582677 74.582677V548.283465h473.700788a471.685039 471.685039 0 0 1-471.68504 471.685039zM1019.968504 584.566929H626.897638v395.086614c189.480315 0 393.070866-197.543307 393.070866-395.086614z" fill="#ffffff" p-id="8691"></path><path d="M491.84252 943.370079a471.685039 471.685039 0 1 1 471.685039-471.68504H491.84252z m74.582677 74.582677V548.283465h473.700787a471.685039 471.685039 0 0 1-471.685039 471.685039zM999.811024 584.566929H604.724409v395.086614c189.480315 0 395.086614-197.543307 395.086615-395.086614z" fill="#ffffff" p-id="8692"></path><path d="M778.07874 102.80315a471.685039 471.685039 0 0 1 185.448819 374.929133H491.84252v457.574804A570.456693 570.456693 0 0 1 778.07874 102.80315zM568.440945 1024V552.314961h471.685039a471.685039 471.685039 0 0 1-471.685039 471.685039z m431.370079-433.385827H604.724409v393.070866c189.480315 0 395.086614-197.543307 395.086615-393.070866z" fill="#ffffff" p-id="8693"></path></svg>